<mxfile host="app.diagrams.net" modified="2023-10-17T01:01:44.796Z" agent="Mozilla/5.0 (Macintosh; Intel Mac OS X 10_15_7) AppleWebKit/537.36 (KHTML, like Gecko) Chrome/117.0.0.0 Safari/537.36" etag="Q2ISOcuheTqGXNyOz2wk" version="22.0.4" type="device">
  <diagram name="페이지-1" id="4uXgZ29Duq7tscsrJIBx">
    <mxGraphModel dx="1314" dy="835" grid="1" gridSize="10" guides="1" tooltips="1" connect="1" arrows="1" fold="1" page="1" pageScale="1" pageWidth="827" pageHeight="1169" math="0" shadow="0">
      <root>
        <mxCell id="0" />
        <mxCell id="1" parent="0" />
      </root>
    </mxGraphModel>
  </diagram>
</mxfile>
